# Blender v2.73 (sub 0) OBJ File: 'brick3.blend'
# www.blender.org
v -0.598338 0.000000 -0.935612
v -0.653336 0.000000 -1.164694
v 0.312589 0.000000 -1.423515
v 0.379809 0.000000 -1.143525
v 0.432284 0.000000 -0.860401
v 0.469869 0.000000 -0.574919
v 0.492462 0.000000 -0.287860
v 0.500000 0.000000 -0.000013
v 0.492463 0.000000 0.287835
v 0.469872 0.000000 0.574893
v 0.432288 0.000000 0.860376
v 0.379815 0.000000 1.143501
v 0.312595 0.000000 1.423491
v -0.653331 0.000000 1.164674
v -0.598333 0.000000 0.935591
v -0.555401 0.000000 0.703944
v -0.524650 0.000000 0.470367
v -0.506166 0.000000 0.235501
v -0.500000 0.000000 -0.000010
v -0.506168 0.000000 -0.235522
v -0.524652 0.000000 -0.470388
v -0.555404 0.000000 -0.703965
v -0.598338 2.000000 -0.935612
v -0.555404 2.000000 -0.703965
v -0.524652 2.000000 -0.470388
v -0.506168 2.000000 -0.235522
v -0.500000 2.000000 -0.000010
v 0.500000 2.000000 -0.000013
v 0.492462 2.000000 -0.287860
v 0.469869 2.000000 -0.574919
v 0.432284 2.000000 -0.860401
v 0.379809 2.000000 -1.143525
v 0.312589 2.000000 -1.423515
v -0.653336 2.000000 -1.164694
v 0.312595 2.000000 1.423491
v 0.379815 2.000000 1.143501
v 0.432288 2.000000 0.860376
v 0.469872 2.000000 0.574893
v 0.492463 2.000000 0.287835
v -0.506166 2.000000 0.235501
v -0.524650 2.000000 0.470367
v -0.555401 2.000000 0.703944
v -0.598333 2.000000 0.935591
v -0.653331 2.000000 1.164674
vt 0.000000 0.000000
vt 1.000000 0.000000
vt 1.000000 1.000000
vt 0.000000 0.200000
vn 0.000000 -1.000000 0.000000
vn 0.972400 0.000000 -0.233400
vn 0.983300 0.000000 -0.182200
vn 0.991400 0.000000 -0.130500
vn 0.996900 0.000000 -0.078500
vn 0.999700 0.000000 -0.026200
vn 0.999700 0.000000 0.026200
vn 0.996900 0.000000 0.078500
vn 0.991400 0.000000 0.130500
vn 0.983300 0.000000 0.182200
vn 0.972400 0.000000 0.233400
vn -0.972400 0.000000 0.233400
vn -0.972400 0.000000 -0.233400
vn -0.983300 0.000000 0.182200
vn -0.983300 0.000000 -0.182200
vn -0.991400 0.000000 0.130500
vn -0.991400 0.000000 -0.130500
vn -0.996900 0.000000 0.078500
vn -0.996900 0.000000 -0.078500
vn -0.999700 0.000000 0.026200
vn -0.999700 0.000000 -0.026200
vn 0.000000 1.000000 0.000000
vn -0.258800 0.000000 0.965900
vn -0.258800 0.000000 -0.965900
s off
f 19/1/1 7/2/1 8/3/1
f 33/1/2 32/2/2 4/3/2
f 32/1/3 31/2/3 5/3/3
f 31/1/4 30/2/4 6/3/4
f 30/1/5 29/2/5 7/3/5
f 29/1/6 28/2/6 8/3/6
f 28/1/7 39/2/7 9/3/7
f 39/1/8 38/2/8 10/3/8
f 38/1/9 37/2/9 11/3/9
f 37/1/10 36/2/10 12/3/10
f 36/1/11 35/2/11 13/3/11
f 1/1/12 23/2/12 34/3/12
f 14/1/13 44/2/13 43/3/13
f 22/1/14 24/2/14 23/3/14
f 15/1/15 43/2/15 42/3/15
f 21/1/16 25/2/16 24/3/16
f 16/1/17 42/2/17 41/3/17
f 20/1/18 26/2/18 25/3/18
f 17/1/19 41/2/19 40/3/19
f 19/1/20 27/2/20 26/3/20
f 18/1/21 40/2/21 27/3/21
f 13/1/1 14/2/1 15/3/1
f 11/1/1 15/2/1 16/3/1
f 11/1/1 16/2/1 17/3/1
f 9/1/1 17/2/1 18/3/1
f 9/1/1 18/2/1 19/3/1
f 7/1/1 19/2/1 20/3/1
f 7/1/1 20/2/1 21/3/1
f 5/1/1 21/2/1 22/3/1
f 15/1/1 12/2/1 13/3/1
f 17/1/1 10/2/1 11/3/1
f 19/1/1 8/2/1 9/3/1
f 21/1/1 6/2/1 7/3/1
f 22/1/1 1/2/1 5/3/1
f 4/1/1 1/2/1 2/3/1
f 17/1/1 9/2/1 10/3/1
f 21/1/1 5/2/1 6/3/1
f 3/1/1 4/2/1 2/3/1
f 15/1/1 11/2/1 12/3/1
f 5/1/1 1/2/1 4/3/1
f 29/1/22 27/2/22 28/3/22
f 29/1/22 26/2/22 27/3/22
f 29/1/22 25/2/22 26/3/22
f 29/1/22 30/2/22 25/3/22
f 25/1/22 30/2/22 31/3/22
f 24/1/22 25/2/22 31/3/22
f 23/1/22 24/2/22 31/3/22
f 32/1/22 23/2/22 31/3/22
f 32/1/22 34/2/22 23/3/22
f 32/1/22 33/2/22 34/3/22
f 28/1/22 27/2/22 40/3/22
f 39/1/22 40/2/22 41/3/22
f 37/1/22 41/2/22 42/3/22
f 37/1/22 42/2/22 43/3/22
f 35/1/22 43/2/22 44/3/22
f 39/1/22 28/2/22 40/3/22
f 38/1/22 39/2/22 41/3/22
f 37/1/22 38/2/22 41/3/22
f 36/1/22 37/2/22 43/3/22
f 35/1/22 36/2/22 43/3/22
f 3/1/2 33/2/2 4/3/2
f 4/1/3 32/2/3 5/3/3
f 5/1/4 31/2/4 6/3/4
f 6/1/5 30/2/5 7/3/5
f 7/1/6 29/2/6 8/3/6
f 8/1/7 28/2/7 9/3/7
f 9/1/8 39/2/8 10/3/8
f 10/1/9 38/2/9 11/3/9
f 11/1/10 37/2/10 12/3/10
f 12/1/11 36/2/11 13/3/11
f 2/1/12 1/2/12 34/3/12
f 15/1/13 14/2/13 43/3/13
f 1/1/14 22/2/14 23/3/14
f 16/1/15 15/2/15 42/3/15
f 22/1/16 21/2/16 24/3/16
f 17/1/17 16/2/17 41/3/17
f 21/1/18 20/2/18 25/3/18
f 18/1/19 17/2/19 40/3/19
f 20/1/20 19/2/20 26/3/20
f 19/1/21 18/2/21 27/3/21
f 35/1/23 44/2/23 13/3/23
f 44/1/23 14/2/23 13/3/23
f 34/1/24 33/2/24 2/3/24
f 33/3/24 3/4/24 2/2/24
