# Blender v2.73 (sub 0) OBJ File: 'pad.blend'
# www.blender.org
v -3.668254 -0.000000 0.312738
v -2.740090 0.000000 -0.580059
v -2.450423 -0.000000 0.462942
v 1.226690 1.000000 0.553204
v 0.000001 1.000000 0.583319
v 0.000001 -0.000000 0.583319
v 2.450424 1.000000 0.462933
v 1.226690 -0.000000 0.553204
v 3.668255 1.000000 0.312723
v 2.450424 -0.000000 0.462933
v -1.177623 0.000000 -0.445585
v -1.962626 0.000000 -0.503492
v -1.226689 1.000000 0.553206
v -1.226689 -0.000000 0.553206
v -2.450423 1.000000 0.462942
v -3.668254 1.000000 0.312738
v -2.740090 1.000000 -0.580059
v -3.521525 1.000000 -0.676440
v -0.000001 1.000000 -0.416681
v -1.177623 1.000000 -0.445589
v 2.352405 0.000000 -0.532252
v 2.352405 1.000000 -0.532252
v 3.521523 1.000000 -0.676453
v -2.352407 0.000000 -0.532244
v 1.177621 0.000000 -0.445592
v 1.177621 1.000000 -0.445592
v -1.962626 1.000000 -0.503492
v -0.000001 0.000000 -0.416681
v -3.521525 0.000000 -0.676435
v 3.668255 -0.000000 0.312723
v 3.521523 0.000000 -0.676450
v -2.352407 1.000000 -0.532244
vt 0.000000 0.000000
vt 1.000000 0.000000
vt 1.000000 1.000000
vn -0.000000 -1.000000 -0.000000
vn 0.024500 -0.000000 0.999700
vn 0.073600 -0.000000 0.997300
vn 0.122400 -0.000000 0.992500
vn -0.024500 -0.000000 0.999700
vn -0.073600 -0.000000 0.997300
vn -0.122400 -0.000000 0.992500
vn 0.122400 0.000000 -0.992500
vn -0.122400 0.000000 -0.992500
vn -0.073600 0.000000 -0.997300
vn -0.024500 0.000000 -0.999700
vn 0.000000 1.000000 0.000000
vn 0.024500 0.000000 -0.999700
vn 0.073600 -0.000000 -0.997300
vn 0.989200 -0.000000 -0.146700
vn -0.989200 0.000000 -0.146700
s off
f 1/1/1 2/2/1 3/3/1
f 4/1/2 5/2/2 6/3/2
f 7/1/3 4/2/3 8/3/3
f 9/1/4 7/2/4 10/3/4
f 5/1/5 13/2/5 14/3/5
f 13/1/6 15/2/6 3/3/6
f 16/2/7 1/3/7 15/1/7
f 17/1/8 2/2/8 29/3/8
f 21/1/9 22/2/9 23/3/9
f 24/1/8 2/2/8 17/3/8
f 25/1/10 26/2/10 22/3/10
f 28/1/11 19/2/11 26/3/11
f 26/1/12 19/2/12 5/3/12
f 4/1/12 26/2/12 5/3/12
f 4/1/12 7/2/12 26/3/12
f 26/1/12 7/2/12 22/3/12
f 22/1/12 7/2/12 9/3/12
f 13/1/12 20/2/12 27/3/12
f 2/2/1 1/3/1 29/1/1
f 11/1/1 6/2/1 14/3/1
f 25/1/1 10/2/1 8/3/1
f 14/1/1 12/2/1 11/3/1
f 3/1/1 2/2/1 24/3/1
f 30/1/1 10/2/1 21/3/1
f 21/1/1 10/2/1 25/3/1
f 8/1/1 6/2/1 25/3/1
f 25/1/1 6/2/1 28/3/1
f 28/1/1 6/2/1 11/3/1
f 14/1/1 3/2/1 12/3/1
f 3/1/1 24/2/1 12/3/1
f 15/1/12 27/2/12 32/3/12
f 29/1/8 18/2/8 17/3/8
f 28/1/13 11/2/13 19/3/13
f 27/1/14 20/2/14 11/3/14
f 15/1/12 32/2/12 17/3/12
f 11/1/13 20/2/13 19/3/13
f 15/1/12 13/2/12 27/3/12
f 16/1/12 15/2/12 17/3/12
f 8/1/2 4/2/2 6/3/2
f 10/1/3 7/2/3 8/3/3
f 30/1/4 9/2/4 10/3/4
f 6/1/5 5/2/5 14/3/5
f 14/1/6 13/2/6 3/3/6
f 15/2/7 1/3/7 3/1/7
f 11/1/14 12/2/14 27/3/14
f 13/1/12 5/2/12 20/3/12
f 17/1/8 32/2/8 24/3/8
f 21/1/10 25/2/10 22/3/10
f 24/1/14 32/2/14 27/3/14
f 27/1/14 12/2/14 24/3/14
f 25/1/11 28/2/11 26/3/11
f 23/1/15 9/1/15 30/1/15
f 30/1/15 31/1/15 23/1/15
f 23/1/12 22/2/12 9/3/12
f 30/1/1 21/2/1 31/3/1
f 31/1/9 21/2/9 23/3/9
f 5/1/12 19/2/12 20/3/12
f 16/1/12 17/2/12 18/3/12
f 29/1/16 1/1/16 16/2/16
f 18/1/16 29/1/16 16/2/16
