# Blender v2.73 (sub 0) OBJ File: 'floor2.blend'
# www.blender.org
v 0.000000 0.000000 -30.000000
v -1.472030 0.000000 -29.963863
v -2.940514 0.000000 -29.855541
v -4.401914 0.000000 -29.675295
v -5.852710 0.000000 -29.423557
v -7.289406 0.000000 -29.100937
v -8.708540 0.000000 -28.708210
v -10.106695 0.000000 -28.246323
v -11.480503 0.000000 -27.716387
v -12.826652 0.000000 -27.119678
v -14.141901 0.000000 -26.457638
v -15.423082 0.000000 -25.731857
v -16.667107 0.000000 -24.944088
v -17.870979 0.000000 -24.096226
v -19.031799 0.000000 -23.190313
v -20.146769 0.000000 -22.228531
v -21.213205 0.000000 -21.213202
v -22.228535 0.000000 -20.146767
v -23.190317 0.000000 -19.031796
v -24.096230 0.000000 -17.870975
v -24.944092 0.000000 -16.667103
v -25.731861 0.000000 -15.423078
v -26.457640 0.000000 -14.141897
v -27.119680 0.000000 -12.826647
v -27.716389 0.000000 -11.480496
v -28.246325 0.000000 -10.106688
v -28.708212 0.000000 -8.708532
v -29.100939 0.000000 -7.289396
v -29.423561 0.000000 -5.852700
v -29.675297 0.000000 -4.401904
v -29.855543 0.000000 -2.940504
v -29.963863 0.000000 -1.472019
v -30.000000 0.000000 0.000012
v -29.963863 0.000000 1.472043
v -29.855539 0.000000 2.940527
v -29.675293 0.000000 4.401928
v -29.423555 0.000000 5.852724
v -29.100935 0.000000 7.289420
v -28.708206 0.000000 8.708555
v -28.246317 0.000000 10.106711
v -27.716379 0.000000 11.480519
v -27.119673 0.000000 12.826665
v -26.457634 0.000000 14.141912
v -25.731853 0.000000 15.423090
v -24.944086 0.000000 16.667110
v -24.096226 0.000000 17.870981
v -23.190315 0.000000 19.031797
v -22.228537 0.000000 20.146767
v -21.213209 0.000000 21.213198
v -20.146776 0.000000 22.228527
v -19.031809 0.000000 23.190306
v -17.870993 0.000000 24.096216
v -16.667124 0.000000 24.944077
v -15.423100 0.000000 25.731848
v -14.141924 0.000000 26.457626
v -12.826677 0.000000 27.119667
v -11.480532 0.000000 27.716373
v -10.106728 0.000000 28.246311
v -8.708575 0.000000 28.708200
v -7.289444 0.000000 29.100927
v -5.852752 0.000000 29.423550
v -4.401959 0.000000 29.675289
v -2.940562 0.000000 29.855536
v -1.472082 0.000000 29.963861
v -0.000055 0.000000 30.000000
v 1.471973 0.000000 29.963867
v 2.940454 0.000000 29.855547
v 4.401852 0.000000 29.675304
v 5.852644 0.000000 29.423573
v 7.289338 0.000000 29.100954
v 8.708471 0.000000 28.708231
v 10.106625 0.000000 28.246347
v 11.480431 0.000000 27.716415
v 12.826579 0.000000 27.119713
v 14.141829 0.000000 26.457678
v 15.423008 0.000000 25.731903
v 16.667032 0.000000 24.944138
v 17.870905 0.000000 24.096281
v 19.031725 0.000000 23.190374
v 20.146696 0.000000 22.228600
v 21.213131 0.000000 21.213276
v 22.228464 0.000000 20.146847
v 23.190250 0.000000 19.031878
v 24.096169 0.000000 17.871056
v 24.944036 0.000000 16.667185
v 25.731813 0.000000 15.423158
v 26.457598 0.000000 14.141976
v 27.119644 0.000000 12.826725
v 27.716356 0.000000 11.480574
v 28.246298 0.000000 10.106763
v 28.708191 0.000000 8.708605
v 29.100922 0.000000 7.289467
v 29.423546 0.000000 5.852768
v 29.675287 0.000000 4.401968
v 29.855536 0.000000 2.940565
v 29.963861 0.000000 1.472077
v 30.000000 0.000000 0.000043
v 29.963865 0.000000 -1.471992
v 29.855545 0.000000 -2.940480
v 29.675299 0.000000 -4.401885
v 29.423563 0.000000 -5.852684
v 29.100943 0.000000 -7.289384
v 28.708216 0.000000 -8.708524
v 28.246326 0.000000 -10.106684
v 27.716389 0.000000 -11.480494
v 27.119680 0.000000 -12.826648
v 26.457638 0.000000 -14.141901
v 25.731855 0.000000 -15.423084
v 24.944084 0.000000 -16.667112
v 24.096218 0.000000 -17.870989
v 23.190304 0.000000 -19.031811
v 22.228521 0.000000 -20.146784
v 21.213186 0.000000 -21.213221
v 20.146748 0.000000 -22.228554
v 19.031773 0.000000 -23.190334
v 17.870949 0.000000 -24.096249
v 16.667074 0.000000 -24.944111
v 15.423043 0.000000 -25.731882
v 14.141858 0.000000 -26.457663
v 12.826604 0.000000 -27.119701
v 11.480450 0.000000 -27.716408
v 10.106638 0.000000 -28.246344
v 8.708477 0.000000 -28.708229
v 7.289338 0.000000 -29.100954
v 5.852637 0.000000 -29.423574
v 4.401837 0.000000 -29.675306
v 2.940432 0.000000 -29.855551
v 1.471943 0.000000 -29.963867
vt 0.922554 0.232421
vt 0.987998 0.609584
vt 0.390417 0.987998
vt 0.894293 0.192293
vt 0.908916 0.212009
vt 0.862234 0.155127
vt 0.878719 0.173316
vt 0.826686 0.121282
vt 0.844875 0.137768
vt 0.767580 0.077446
vt 0.807709 0.105709
vt 0.787992 0.091085
vt 0.702682 0.042758
vt 0.724874 0.053254
vt 0.746524 0.064826
vt 0.656889 0.025093
vt 0.680002 0.033363
vt 0.633397 0.017967
vt 0.585507 0.007213
vt 0.609584 0.012002
vt 0.536794 0.001205
vt 0.561224 0.003611
vt 0.463207 0.001205
vt 0.487726 0.000000
vt 0.512275 0.000000
vt 0.275126 0.053254
vt 0.390416 0.012002
vt 0.414493 0.007213
vt 0.319998 0.033363
vt 0.343112 0.025093
vt 0.366603 0.017967
vt 0.297318 0.042758
vt 0.064826 0.746524
vt 0.173315 0.121282
vt 0.212009 0.091085
vt 0.232420 0.077446
vt 0.192291 0.105708
vt 0.137767 0.155127
vt 0.155125 0.137768
vt 0.091084 0.212010
vt 0.105707 0.192292
vt 0.121281 0.173316
vt 0.077445 0.232422
vt 0.025092 0.343113
vt 0.053253 0.275128
vt 0.064825 0.253478
vt 0.033362 0.320000
vt 0.042757 0.297320
vt 0.012002 0.390418
vt 0.017966 0.366605
vt 0.007212 0.414495
vt 0.000000 0.487727
vt 0.001204 0.463208
vt 0.003611 0.438778
vt 0.000000 0.512276
vt 0.007213 0.585508
vt 0.003611 0.561225
vt 0.001205 0.536795
vt 0.253476 0.064826
vt 0.012002 0.609585
vt 0.025093 0.656889
vt 0.017967 0.633398
vt 0.053254 0.724874
vt 0.042758 0.702683
vt 0.033363 0.680003
vt 0.091085 0.787992
vt 0.077446 0.767580
vt 0.121282 0.826685
vt 0.105709 0.807709
vt 0.155126 0.862233
vt 0.137768 0.844875
vt 0.212010 0.908916
vt 0.192292 0.894292
vt 0.173316 0.878719
vt 0.232421 0.922554
vt 0.319999 0.966637
vt 0.275127 0.946747
vt 0.253477 0.935175
vt 0.297319 0.957243
vt 0.366604 0.982033
vt 0.343112 0.974907
vt 0.512274 1.000000
vt 0.414493 0.992787
vt 0.463207 0.998795
vt 0.438776 0.996389
vt 0.487726 1.000000
vt 0.585506 0.992787
vt 0.561224 0.996389
vt 0.536793 0.998795
vt 0.702681 0.957243
vt 0.609583 0.987998
vt 0.656888 0.974907
vt 0.633396 0.982033
vt 0.680001 0.966637
vt 0.746523 0.935175
vt 0.724873 0.946747
vt 0.787991 0.908916
vt 0.767579 0.922554
vt 0.844874 0.862233
vt 0.826685 0.878719
vt 0.807708 0.894292
vt 0.878718 0.826685
vt 0.862233 0.844874
vt 0.935175 0.746523
vt 0.894292 0.807709
vt 0.922554 0.767579
vt 0.908916 0.787991
vt 0.946747 0.724873
vt 0.974907 0.656888
vt 0.966637 0.680002
vt 0.957243 0.702682
vt 0.982033 0.633397
vt 0.996389 0.561224
vt 0.992787 0.585507
vt 1.000000 0.512274
vt 0.998795 0.536793
vt 1.000000 0.487726
vt 0.992787 0.414493
vt 0.996389 0.438776
vt 0.998795 0.463207
vt 0.982033 0.366603
vt 0.987998 0.390416
vt 0.974907 0.343112
vt 0.957243 0.297318
vt 0.966637 0.319998
vt 0.935175 0.253477
vt 0.946747 0.275127
vt 0.438776 0.003611
vn 0.000000 1.000000 0.000000
s off
f 2/1/1 18/2/1 50/3/1
f 128/4/1 1/5/1 2/1/1
f 126/6/1 127/7/1 128/4/1
f 124/8/1 125/9/1 126/6/1
f 121/10/1 123/11/1 124/8/1
f 123/11/1 121/10/1 122/12/1
f 118/13/1 119/14/1 120/15/1
f 116/16/1 117/17/1 118/13/1
f 120/15/1 115/18/1 116/16/1
f 115/18/1 113/19/1 114/20/1
f 113/19/1 111/21/1 112/22/1
f 108/23/1 109/24/1 110/25/1
f 2/1/1 100/26/1 108/23/1
f 100/26/1 105/27/1 106/28/1
f 102/29/1 103/30/1 104/31/1
f 100/26/1 101/32/1 102/29/1
f 2/1/1 67/33/1 100/26/1
f 95/34/1 97/35/1 98/36/1
f 97/35/1 95/34/1 96/37/1
f 95/34/1 93/38/1 94/39/1
f 90/40/1 91/41/1 92/42/1
f 92/42/1 89/43/1 90/40/1
f 84/44/1 87/45/1 88/46/1
f 87/45/1 85/47/1 86/48/1
f 82/49/1 83/50/1 84/44/1
f 84/44/1 81/51/1 82/49/1
f 78/52/1 79/53/1 80/54/1
f 80/54/1 77/55/1 78/52/1
f 74/56/1 75/57/1 76/58/1
f 95/34/1 98/36/1 99/59/1
f 73/60/1 71/61/1 72/62/1
f 68/63/1 69/64/1 70/65/1
f 70/65/1 99/59/1 68/63/1
f 67/33/1 65/66/1 66/67/1
f 65/66/1 63/68/1 64/69/1
f 63/68/1 61/70/1 62/71/1
f 58/72/1 59/73/1 60/74/1
f 60/74/1 57/75/1 58/72/1
f 53/76/1 55/77/1 56/78/1
f 55/77/1 53/76/1 54/79/1
f 50/3/1 51/80/1 52/81/1
f 45/82/1 49/83/1 50/3/1
f 49/83/1 47/84/1 48/85/1
f 47/84/1 45/82/1 46/86/1
f 42/87/1 43/88/1 44/89/1
f 37/90/1 41/91/1 42/87/1
f 41/91/1 39/92/1 40/93/1
f 39/92/1 37/90/1 38/94/1
f 37/90/1 35/95/1 36/96/1
f 35/95/1 33/97/1 34/98/1
f 30/99/1 31/100/1 32/101/1
f 28/102/1 29/103/1 30/99/1
f 24/104/1 27/105/1 28/102/1
f 24/104/1 25/106/1 26/107/1
f 18/2/1 23/108/1 24/104/1
f 20/109/1 21/110/1 22/111/1
f 18/2/1 19/112/1 20/109/1
f 16/113/1 17/114/1 18/2/1
f 14/115/1 15/116/1 16/113/1
f 16/113/1 13/117/1 14/115/1
f 10/118/1 11/119/1 12/120/1
f 8/121/1 9/122/1 10/118/1
f 10/118/1 7/123/1 8/121/1
f 10/118/1 5/124/1 6/125/1
f 5/124/1 3/126/1 4/127/1
f 115/18/1 128/4/1 2/1/1
f 120/15/1 124/8/1 126/6/1
f 124/8/1 120/15/1 121/10/1
f 120/15/1 116/16/1 118/13/1
f 110/25/1 111/21/1 113/19/1
f 2/1/1 108/23/1 110/25/1
f 102/29/1 104/31/1 105/27/1
f 105/27/1 100/26/1 102/29/1
f 99/59/1 74/56/1 95/34/1
f 89/43/1 92/42/1 93/38/1
f 93/38/1 88/46/1 89/43/1
f 87/45/1 84/44/1 85/47/1
f 84/44/1 77/55/1 81/51/1
f 74/56/1 76/58/1 77/55/1
f 70/65/1 71/61/1 73/60/1
f 73/60/1 74/56/1 99/59/1
f 67/33/1 63/68/1 65/66/1
f 63/68/1 60/74/1 61/70/1
f 53/76/1 56/78/1 57/75/1
f 50/3/1 52/81/1 53/76/1
f 45/82/1 47/84/1 49/83/1
f 50/3/1 42/87/1 45/82/1
f 37/90/1 39/92/1 41/91/1
f 42/87/1 35/95/1 37/90/1
f 35/95/1 32/101/1 33/97/1
f 32/101/1 28/102/1 30/99/1
f 27/105/1 24/104/1 26/107/1
f 18/2/1 20/109/1 22/111/1
f 2/1/1 3/126/1 18/2/1
f 16/113/1 12/120/1 13/117/1
f 6/125/1 7/123/1 10/118/1
f 16/113/1 3/126/1 5/124/1
f 115/18/1 120/15/1 128/4/1
f 126/6/1 128/4/1 120/15/1
f 115/18/1 110/25/1 113/19/1
f 107/128/1 100/26/1 106/28/1
f 84/44/1 88/46/1 95/34/1
f 95/34/1 77/55/1 84/44/1
f 81/51/1 77/55/1 80/54/1
f 73/60/1 99/59/1 70/65/1
f 50/3/1 57/75/1 63/68/1
f 50/3/1 53/76/1 57/75/1
f 42/87/1 44/89/1 45/82/1
f 50/3/1 35/95/1 42/87/1
f 24/104/1 28/102/1 32/101/1
f 18/2/1 22/111/1 23/108/1
f 10/118/1 12/120/1 16/113/1
f 16/113/1 5/124/1 10/118/1
f 110/25/1 115/18/1 2/1/1
f 108/23/1 100/26/1 107/128/1
f 74/56/1 77/55/1 95/34/1
f 95/34/1 88/46/1 93/38/1
f 63/68/1 57/75/1 60/74/1
f 32/101/1 35/95/1 50/3/1
f 18/2/1 24/104/1 32/101/1
f 18/2/1 3/126/1 16/113/1
f 67/33/1 68/63/1 100/26/1
f 99/59/1 100/26/1 68/63/1
f 67/33/1 50/3/1 63/68/1
f 50/3/1 18/2/1 32/101/1
f 50/3/1 67/33/1 2/1/1
