# Blender v2.73 (sub 0) OBJ File: 'pad.blend'
# www.blender.org
v -3.668254 -0.000000 0.312738
v -2.740090 0.000000 -0.580059
v -2.450423 -0.000000 0.462942
v 1.226690 1.000000 0.553204
v 0.000001 1.000000 0.583319
v 0.000001 -0.000000 0.583319
v 2.450424 1.000000 0.462933
v 1.226690 -0.000000 0.553204
v 3.668255 1.000000 0.312723
v 2.450424 -0.000000 0.462933
v -1.177623 0.000000 -0.445585
v -1.962626 0.000000 -0.503492
v -1.226689 1.000000 0.553206
v -1.226689 -0.000000 0.553206
v -2.450423 1.000000 0.462942
v -3.668254 1.000000 0.312738
v -2.740090 1.000000 -0.580059
v -3.521525 1.000000 -0.676440
v -0.000001 1.000000 -0.416681
v -1.177623 1.000000 -0.445589
v 2.352405 0.000000 -0.532252
v 2.352405 1.000000 -0.532252
v 3.521523 1.000000 -0.676453
v -2.352407 0.000000 -0.532244
v 1.177621 0.000000 -0.445592
v 1.177621 1.000000 -0.445592
v -1.962626 1.000000 -0.503492
v -0.000001 0.000000 -0.416681
v -3.521525 0.000000 -0.676435
v 3.668255 -0.000000 0.312723
v 3.521523 0.000000 -0.676450
v -2.352407 1.000000 -0.532244
vt 0.000000 0.000000
vt 1.000000 0.000000
vt 1.000000 1.000000
vn -0.650500 -0.576100 0.494900
vn 0.086600 -0.707100 -0.701800
vn -0.069800 -0.701600 0.709100
vn 0.034900 0.701600 0.711700
vn 0.000000 0.701600 0.712500
vn 0.000000 -0.701600 0.712500
vn 0.069800 0.701600 0.709100
vn 0.034900 -0.701600 0.711700
vn 0.650500 0.576100 0.494900
vn 0.069800 -0.701600 0.709100
vn -0.034900 0.701600 0.711700
vn -0.034900 -0.701600 0.711700
vn -0.069800 0.701600 0.709100
vn -0.650500 0.576100 0.494900
vn 0.086600 0.707100 -0.701800
vn -0.493800 -0.578600 -0.649000
vn -0.068800 -0.712700 -0.698100
vn -0.068800 0.712700 -0.698100
vn 0.493800 0.578600 -0.649000
vn 0.068700 -0.712700 -0.698100
vn -0.034400 -0.712700 -0.700600
vn -0.034400 0.712700 -0.700600
vn 0.000000 -0.712700 -0.701500
vn 0.000000 0.712700 -0.701500
vn 0.034400 0.712700 -0.700600
vn 0.052000 0.707100 -0.705200
vn 0.034400 -0.712700 -0.700600
vn 0.052000 -0.707100 -0.705200
vn 0.650500 -0.576100 0.494900
vn 0.068700 0.712700 -0.698100
vn -0.493800 0.578600 -0.649000
vn 0.493800 -0.578600 -0.649000
s 1
f 1/1/1 2/2/2 3/3/3
f 4/1/4 5/2/5 6/3/6
f 7/1/7 4/2/4 8/3/8
f 9/1/9 7/2/7 10/3/10
f 5/1/5 13/2/11 14/3/12
f 13/1/11 15/2/13 3/3/3
f 16/2/14 1/3/1 15/1/13
f 17/1/15 2/2/2 29/3/16
f 21/1/17 22/2/18 23/3/19
f 24/1/20 2/2/2 17/3/15
f 25/1/21 26/2/22 22/3/18
f 28/1/23 19/2/24 26/3/22
f 26/1/22 19/2/24 5/3/5
f 4/1/4 26/2/22 5/3/5
f 4/1/4 7/2/7 26/3/22
f 26/1/22 7/2/7 22/3/18
f 22/1/18 7/2/7 9/3/9
f 13/1/11 20/2/25 27/3/26
f 2/2/2 1/3/1 29/1/16
f 11/1/27 6/2/6 14/3/12
f 25/1/21 10/2/10 8/3/8
f 14/1/12 12/2/28 11/3/27
f 3/1/3 2/2/2 24/3/20
f 30/1/29 10/2/10 21/3/17
f 21/1/17 10/2/10 25/3/21
f 8/1/8 6/2/6 25/3/21
f 25/1/21 6/2/6 28/3/23
f 28/1/23 6/2/6 11/3/27
f 14/1/12 3/2/3 12/3/28
f 3/1/3 24/2/20 12/3/28
f 15/1/13 27/2/26 32/3/30
f 29/1/16 18/2/31 17/3/15
f 28/1/23 11/2/27 19/3/24
f 27/1/26 20/2/25 11/3/27
f 15/1/13 32/2/30 17/3/15
f 11/1/27 20/2/25 19/3/24
f 15/1/13 13/2/11 27/3/26
f 16/1/14 15/2/13 17/3/15
f 8/1/8 4/2/4 6/3/6
f 10/1/10 7/2/7 8/3/8
f 30/1/29 9/2/9 10/3/10
f 6/1/6 5/2/5 14/3/12
f 14/1/12 13/2/11 3/3/3
f 15/2/13 1/3/1 3/1/3
f 11/1/27 12/2/28 27/3/26
f 13/1/11 5/2/5 20/3/25
f 17/1/15 32/2/30 24/3/20
f 21/1/17 25/2/21 22/3/18
f 24/1/20 32/2/30 27/3/26
f 27/1/26 12/2/28 24/3/20
f 25/1/21 28/2/23 26/3/22
f 23/1/19 9/1/9 30/1/29
f 30/1/29 31/1/32 23/1/19
f 23/1/19 22/2/18 9/3/9
f 30/1/29 21/2/17 31/3/32
f 31/1/32 21/2/17 23/3/19
f 5/1/5 19/2/24 20/3/25
f 16/1/14 17/2/15 18/3/31
f 29/1/16 1/1/1 16/2/14
f 18/1/31 29/1/16 16/2/14
